<svg width="247" height="246" viewBox="0 0 247 246" fill="none" xmlns="http://www.w3.org/2000/svg">
<path d="M41.7433 123.137H42.2433V122.637C42.2433 72.1207 83.2051 31.1589 133.721 31.1589C184.237 31.1589 225.199 72.1207 225.199 122.637C225.199 173.153 184.237 214.115 133.721 214.115C108.593 214.115 85.97 203.995 69.4315 187.634L83.2354 173.83C96.1748 186.691 114.039 194.675 133.721 194.675C173.548 194.675 205.76 162.463 205.76 122.637C205.76 82.8102 173.548 50.5985 133.721 50.5985C93.8945 50.5985 61.6828 82.8102 61.6828 122.637V123.137H62.1828H91.6329L51.6916 162.979L51.2861 162.168L51.2498 162.096L51.1924 162.038L12.2911 123.137H41.7433ZM138.331 125.192V125.476L138.576 125.622L173.915 146.623L167.068 158.13L124.001 132.572V82.2578H138.331V125.192Z" fill="#141414" stroke="#262626"/>
</svg>
