<svg width="71" height="70" viewBox="0 0 71 70" fill="none" xmlns="http://www.w3.org/2000/svg">
<path d="M58.0806 28.0979C57.5908 12.7548 45.1583 0.373085 29.7634 0C29.3669 0 29.0403 0.303131 29.0403 0.699534L29.017 11.006C29.017 11.519 28.6205 11.9154 28.1073 11.9387C12.7591 12.4051 0.373209 24.8568 0 40.2465C0 40.6429 0.303232 40.9694 0.699767 40.9694L10.9863 40.9927C11.4995 40.9927 11.896 41.3891 11.9194 41.9021C12.4092 57.2452 24.865 69.6269 40.2366 70C40.6331 70 40.9597 69.6969 40.9597 69.3005L40.983 58.994C40.983 58.481 41.3795 58.0846 41.8927 58.0613C57.2409 57.5716 69.6268 45.1199 70 29.7535C70 29.3571 69.6968 29.0306 69.3002 29.0306L59.0137 29.0073C58.5005 29.0073 58.104 28.6109 58.0806 28.0979ZM39.9567 57.9913C31.2329 57.4783 24.2353 50.3897 23.9087 41.6222C23.8854 41.2492 23.5821 40.946 23.2089 40.946L12.9457 40.9227C12.4092 40.9227 11.9893 40.4797 12.0127 39.9434C12.5258 31.2225 19.6168 24.2272 28.3872 23.9007C28.7604 23.8774 29.0636 23.5743 29.0636 23.2012L29.087 12.9181C29.087 12.3817 29.5302 11.962 30.0666 11.9853C38.7904 12.4983 45.7881 19.5869 46.1146 28.3544C46.138 28.7275 46.4412 29.0306 46.8144 29.0306L57.0776 29.054C57.6141 29.054 58.034 29.497 58.0107 30.0333C57.4975 38.9873 50.0566 46.0993 40.983 46.0993L40.9597 57.0586C40.9364 57.5949 40.4932 58.0147 39.9567 57.9913Z" fill="#E60000"/>
</svg>
